JunicodeRX.ufo
<glyph name="question" format="1">
  <unicode hex="003F"/>
  <advance width="752"/>
  <outline>
    <contour>
      <point x="279" y="1194" type="line" smooth="yes"/>
      <point x="211" y="1194"/>
      <point x="211" y="1362"/>
      <point x="295" y="1362" type="qcurve" smooth="yes"/>
      <point x="425" y="1362"/>
      <point x="657" y="1090"/>
      <point x="657" y="937" type="qcurve" smooth="yes"/>
      <point x="657" y="784"/>
      <point x="575" y="741" type="qcurve" smooth="yes"/>
      <point x="410" y="653" type="line"/>
      <point x="336" y="612"/>
      <point x="336" y="559.5" type="qcurve" smooth="yes"/>
      <point x="336" y="507"/>
      <point x="356" y="438" type="qcurve"/>
      <point x="356" y="419"/>
      <point x="334" y="419" type="qcurve" smooth="yes"/>
      <point x="319" y="419"/>
      <point x="311" y="426" type="qcurve"/>
      <point x="236" y="562"/>
      <point x="236" y="644" type="qcurve" smooth="yes"/>
      <point x="236" y="726"/>
      <point x="350" y="788" type="qcurve"/>
      <point x="455" y="844" type="line" smooth="yes"/>
      <point x="571" y="906"/>
      <point x="571" y="995" type="qcurve" smooth="yes"/>
      <point x="571" y="1194"/>
      <point x="279" y="1194" type="qcurve" smooth="yes"/>
    </contour>
    <contour>
      <point x="221" y="90" type="line" smooth="yes"/>
      <point x="221" y="140"/>
      <point x="291" y="213"/>
      <point x="393" y="213"/>
      <point x="459" y="137"/>
      <point x="459" y="31"/>
      <point x="389" y="-31"/>
      <point x="286" y="-31"/>
      <point x="221" y="40"/>
      <point x="221" y="90" type="qcurve" smooth="yes"/>
    </contour>
  </outline>
</glyph>
<glyph name="asciitilde" format="1">
  <unicode hex="007E"/>
  <advance width="676"/>
  <outline>
    <contour>
      <point x="27" y="376" type="line"/>
      <point x="126" y="522"/>
      <point x="236" y="522" type="qcurve"/>
      <point x="278" y="522"/>
      <point x="376" y="487" type="qcurve"/>
      <point x="474" y="452"/>
      <point x="507" y="452" type="qcurve"/>
      <point x="573" y="452"/>
      <point x="626" y="516" type="qcurve"/>
      <point x="629" y="519"/>
      <point x="633.5" y="519" type="qcurve"/>
      <point x="638" y="519"/>
      <point x="645.5" y="513" type="qcurve"/>
      <point x="653" y="507"/>
      <point x="653" y="502.5" type="qcurve"/>
      <point x="653" y="498"/>
      <point x="650" y="494" type="qcurve"/>
      <point x="551" y="348"/>
      <point x="441" y="348" type="qcurve"/>
      <point x="399" y="348"/>
      <point x="301" y="383" type="qcurve"/>
      <point x="203" y="418"/>
      <point x="170" y="418" type="qcurve"/>
      <point x="104" y="418"/>
      <point x="51" y="354" type="qcurve"/>
      <point x="48" y="351"/>
      <point x="43.5" y="351" type="qcurve"/>
      <point x="39" y="351"/>
      <point x="31.5" y="357" type="qcurve"/>
      <point x="24" y="363"/>
      <point x="24" y="367.5" type="qcurve"/>
      <point x="24" y="372"/>
      <point x="27" y="376" type="qcurve"/>
    </contour>
  </outline>
</glyph>
<glyph name="uni0188" format="1">
  <unicode hex="0188"/>
  <advance width="817"/>
  <outline>
    <contour>
      <point x="86" y="396" type="line" smooth="yes"/>
      <point x="86" y="581"/>
      <point x="329" y="870"/>
      <point x="523" y="870" type="qcurve" smooth="yes"/>
      <point x="568" y="870"/>
      <point x="666" y="854" type="qcurve"/>
      <point x="688" y="924"/>
      <point x="749" y="1015"/>
      <point x="841" y="1074"/>
      <point x="930" y="1074" type="qcurve" smooth="yes"/>
      <point x="966" y="1074"/>
      <point x="1019" y="1025"/>
      <point x="1019" y="997" type="qcurve" smooth="yes"/>
      <point x="1019" y="969"/>
      <point x="979" y="941"/>
      <point x="956" y="941" type="qcurve" smooth="yes"/>
      <point x="919" y="941"/>
      <point x="852" y="1004"/>
      <point x="834" y="1004" type="qcurve" smooth="yes"/>
      <point x="762" y="1004"/>
      <point x="762" y="788" type="qcurve" smooth="yes"/>
      <point x="762" y="756" type="line" smooth="yes"/>
      <point x="762" y="733"/>
      <point x="718" y="682"/>
      <point x="701" y="682" type="qcurve" smooth="yes"/>
      <point x="684" y="682"/>
      <point x="674" y="696" type="qcurve" smooth="yes"/>
      <point x="596" y="803"/>
      <point x="501" y="803" type="qcurve" smooth="yes"/>
      <point x="406" y="803"/>
      <point x="328" y="701" type="qcurve" smooth="yes"/>
      <point x="250" y="598"/>
      <point x="249" y="440" type="qcurve" smooth="yes"/>
      <point x="249" y="282"/>
      <point x="428" y="90"/>
      <point x="530" y="90" type="qcurve" smooth="yes"/>
      <point x="607" y="90"/>
      <point x="743" y="152" type="qcurve" smooth="yes"/>
      <point x="754" y="157"/>
      <point x="781" y="116"/>
      <point x="781" y="108" type="qcurve" smooth="yes"/>
      <point x="781" y="102"/>
      <point x="776" y="97" type="qcurve" smooth="yes"/>
      <point x="750" y="74"/>
      <point x="668" y="26" type="qcurve" smooth="yes"/>
      <point x="588" y="-22"/>
      <point x="446" y="-23" type="qcurve" smooth="yes"/>
      <point x="300" y="-23"/>
      <point x="86" y="211"/>
      <point x="86" y="396" type="qcurve" smooth="yes"/>
    </contour>
  </outline>
</glyph>
<glyph name="uni01B1" format="1">
  <unicode hex="01B1"/>
  <advance width="1461"/>
  <outline>
    <contour>
      <point x="935" y="1240" type="line"/>
      <point x="932" y="1298" type="line" smooth="yes"/>
      <point x="934" y="1347"/>
      <point x="966" y="1355" type="qcurve" smooth="yes"/>
      <point x="976" y="1358"/>
      <point x="990" y="1358" type="qcurve" smooth="yes"/>
      <point x="1179" y="1358"/>
      <point x="1225" y="1363" type="qcurve" smooth="yes"/>
      <point x="1238" y="1363"/>
      <point x="1238" y="1287"/>
      <point x="1225" y="1287" type="qcurve" smooth="yes"/>
      <point x="1143" y="1287"/>
      <point x="1102" y="1265" type="qcurve"/>
      <point x="1141" y="1232" type="line" smooth="yes"/>
      <point x="1383" y="1008"/>
      <point x="1383" y="663" type="qcurve" smooth="yes"/>
      <point x="1383" y="443"/>
      <point x="1249" y="244" type="qcurve" smooth="yes"/>
      <point x="1065" y="-27"/>
      <point x="735" y="-27" type="qcurve" smooth="yes"/>
      <point x="523" y="-27"/>
      <point x="352" y="99" type="qcurve" smooth="yes"/>
      <point x="248" y="172"/>
      <point x="175" y="312" type="qcurve" smooth="yes"/>
      <point x="91" y="476"/>
      <point x="91" y="667" type="qcurve" smooth="yes"/>
      <point x="91" y="922"/>
      <point x="256" y="1143" type="qcurve" smooth="yes"/>
      <point x="297" y="1199"/>
      <point x="353" y="1249" type="qcurve"/>
      <point x="307" y="1287"/>
      <point x="200" y="1287" type="qcurve" smooth="yes"/>
      <point x="187" y="1287"/>
      <point x="187" y="1363"/>
      <point x="200" y="1363" type="qcurve" smooth="yes"/>
      <point x="244" y="1358"/>
      <point x="442" y="1358" type="qcurve" smooth="yes"/>
      <point x="488" y="1358"/>
      <point x="494" y="1287" type="qcurve" smooth="yes"/>
      <point x="496" y="1240" type="line"/>
      <point x="467" y="1215"/>
      <point x="452" y="1199" type="qcurve" smooth="yes"/>
      <point x="349" y="1094"/>
      <point x="305" y="914" type="qcurve" smooth="yes"/>
      <point x="282" y="821"/>
      <point x="282" y="726" type="qcurve" smooth="yes"/>
      <point x="282" y="390"/>
      <point x="461" y="199" type="qcurve" smooth="yes"/>
      <point x="597" y="48"/>
      <point x="749" y="48" type="qcurve" smooth="yes"/>
      <point x="994" y="48"/>
      <point x="1114" y="283" type="qcurve" smooth="yes"/>
      <point x="1192" y="445"/>
      <point x="1192" y="647" type="qcurve" smooth="yes"/>
      <point x="1192" y="936"/>
      <point x="1033" y="1139" type="qcurve" smooth="yes"/>
      <point x="974" y="1212"/>
      <point x="935" y="1240" type="qcurve"/>
    </contour>
  </outline>
</glyph>
<glyph name="uni0223" format="1">
  <unicode hex="0223"/>
  <advance width="956"/>
  <outline>
    <contour>
      <point x="575" y="1216" type="line" smooth="yes"/>
      <point x="561" y="1225"/>
      <point x="561" y="1247" type="qcurve" smooth="yes"/>
      <point x="565" y="1271" type="line" smooth="yes"/>
      <point x="576" y="1306"/>
      <point x="600" y="1313" type="qcurve" smooth="yes"/>
      <point x="613" y="1313" type="line"/>
      <point x="614" y="1312"/>
      <point x="615" y="1312" type="qcurve"/>
      <point x="809" y="1242"/>
      <point x="809" y="1038" type="qcurve" smooth="yes"/>
      <point x="809" y="830"/>
      <point x="582" y="711" type="qcurve"/>
      <point x="852" y="538"/>
      <point x="852" y="332" type="qcurve" smooth="yes"/>
      <point x="852" y="178"/>
      <point x="739" y="80" type="qcurve" smooth="yes"/>
      <point x="631" y="-16"/>
      <point x="477" y="-16" type="qcurve" smooth="yes"/>
      <point x="322" y="-16"/>
      <point x="215" y="70" type="qcurve" smooth="yes"/>
      <point x="104" y="162"/>
      <point x="104" y="315" type="qcurve" smooth="yes"/>
      <point x="104" y="524"/>
      <point x="377" y="668" type="qcurve"/>
      <point x="263" y="742"/>
      <point x="215" y="803" type="qcurve" smooth="yes"/>
      <point x="211" y="809" type="line" smooth="yes"/>
      <point x="151" y="889"/>
      <point x="143" y="968" type="qcurve" smooth="yes"/>
      <point x="141" y="987"/>
      <point x="141" y="1008" type="qcurve" smooth="yes"/>
      <point x="141" y="1142"/>
      <point x="235" y="1236" type="qcurve" smooth="yes"/>
      <point x="237" y="1238"/>
      <point x="240" y="1241" type="qcurve" smooth="yes"/>
      <point x="279" y="1280"/>
      <point x="339" y="1308" type="qcurve"/>
      <point x="349" y="1309" type="line"/>
      <point x="366" y="1304"/>
      <point x="371" y="1273" type="qcurve" smooth="yes"/>
      <point x="371" y="1253" type="line"/>
      <point x="365" y="1241" type="line"/>
      <point x="359" y="1237" type="line" smooth="yes"/>
      <point x="298" y="1212"/>
      <point x="271" y="1143" type="qcurve" smooth="yes"/>
      <point x="258" y="1110"/>
      <point x="258" y="1075" type="qcurve" smooth="yes"/>
      <point x="258" y="974"/>
      <point x="350" y="885" type="qcurve" smooth="yes"/>
      <point x="398" y="837"/>
      <point x="528" y="754" type="qcurve"/>
      <point x="670" y="854"/>
      <point x="670" y="997" type="qcurve" smooth="yes"/>
      <point x="670" y="1129"/>
      <point x="598" y="1198" type="qcurve" smooth="yes"/>
      <point x="587" y="1208"/>
      <point x="575" y="1216" type="qcurve" smooth="yes"/>
    </contour>
    <contour>
      <point x="709" y="260" type="line" smooth="yes"/>
      <point x="709" y="388"/>
      <point x="621" y="473" type="qcurve" smooth="yes"/>
      <point x="536" y="554"/>
      <point x="463" y="605" type="qcurve" smooth="yes"/>
      <point x="434" y="625" type="line"/>
      <point x="260" y="524"/>
      <point x="260" y="336" type="qcurve" smooth="yes"/>
      <point x="260" y="224"/>
      <point x="328" y="139" type="qcurve" smooth="yes"/>
      <point x="399" y="51"/>
      <point x="508" y="51" type="qcurve" smooth="yes"/>
      <point x="609" y="51"/>
      <point x="667" y="128" type="qcurve" smooth="yes"/>
      <point x="709" y="184"/>
      <point x="709" y="260" type="qcurve" smooth="yes"/>
    </contour>
  </outline>
</glyph>
<glyph name="uni0257" format="1">
  <unicode hex="0257"/>
  <advance width="1012"/>
  <outline>
    <contour>
      <point x="842" y="231" type="line" smooth="yes"/>
      <point x="842" y="82"/>
      <point x="924" y="82" type="qcurve" smooth="yes"/>
      <point x="935" y="82"/>
      <point x="971" y="88" type="qcurve"/>
      <point x="991" y="88"/>
      <point x="991" y="49" type="qcurve" smooth="yes"/>
      <point x="991" y="33"/>
      <point x="983" y="31" type="qcurve" smooth="yes"/>
      <point x="794" y="-3"/>
      <point x="705" y="-33" type="qcurve"/>
      <point x="688" y="-33"/>
      <point x="688" y="16" type="qcurve" smooth="yes"/>
      <point x="688" y="57" type="line" smooth="yes"/>
      <point x="688" y="80"/>
      <point x="676" y="80" type="qcurve" smooth="yes"/>
      <point x="665" y="80"/>
      <point x="649" y="66" type="qcurve" smooth="yes"/>
      <point x="554" y="-23"/>
      <point x="453" y="-23" type="qcurve" smooth="yes"/>
      <point x="256" y="-23"/>
      <point x="156" y="106" type="qcurve" smooth="yes"/>
      <point x="66" y="222"/>
      <point x="66" y="412" type="qcurve" smooth="yes"/>
      <point x="66" y="600"/>
      <point x="195" y="733" type="qcurve"/>
      <point x="330" y="870"/>
      <point x="541" y="870" type="qcurve" smooth="yes"/>
      <point x="610" y="870"/>
      <point x="655" y="856" type="qcurve"/>
      <point x="665" y="854"/>
      <point x="670" y="854" type="qcurve" smooth="yes"/>
      <point x="688" y="854"/>
      <point x="688" y="877" type="qcurve" smooth="yes"/>
      <point x="688" y="889" type="line"/>
      <point x="690" y="1176"/>
      <point x="799" y="1332" type="qcurve"/>
      <point x="894" y="1463"/>
      <point x="1047" y="1463" type="qcurve" smooth="yes"/>
      <point x="1091" y="1463"/>
      <point x="1129" y="1438" type="qcurve"/>
      <point x="1172" y="1413"/>
      <point x="1172" y="1367" type="qcurve" smooth="yes"/>
      <point x="1172" y="1324"/>
      <point x="1130" y="1305" type="qcurve" smooth="yes"/>
      <point x="1113" y="1297"/>
      <point x="1094" y="1297" type="qcurve" smooth="yes"/>
      <point x="1045" y="1297"/>
      <point x="1006" y="1336" type="qcurve" smooth="yes"/>
      <point x="966" y="1375"/>
      <point x="941" y="1375" type="qcurve" smooth="yes"/>
      <point x="846" y="1375"/>
      <point x="842" y="1168" type="qcurve"/>
    </contour>
    <contour>
      <point x="688" y="199" type="qcurve" smooth="yes"/>
      <point x="688" y="668" type="line" smooth="yes"/>
      <point x="688" y="743"/>
      <point x="666" y="762" type="qcurve" smooth="yes"/>
      <point x="607" y="811"/>
      <point x="518" y="811" type="qcurve" smooth="yes"/>
      <point x="384" y="811"/>
      <point x="301" y="694" type="qcurve"/>
      <point x="229" y="588"/>
      <point x="229" y="440" type="qcurve" smooth="yes"/>
      <point x="229" y="291"/>
      <point x="311" y="182" type="qcurve"/>
      <point x="395" y="74"/>
      <point x="504" y="74" type="qcurve" smooth="yes"/>
      <point x="582" y="74"/>
      <point x="637" y="117" type="qcurve" smooth="yes"/>
      <point x="688" y="156"/>
    </contour>
    <contour>
      <point x="453" y="-75" type="move" name="below_center"/>
    </contour>
    <contour>
      <point x="512" y="1545" type="move" name="above_center"/>
    </contour>
  </outline>
</glyph>
<glyph name="uni0327" format="1">
  <unicode hex="0327"/>
  <outline>
    <contour>
      <point x="99" y="-272" type="line" smooth="yes"/>
      <point x="99" y="-375"/>
      <point x="7" y="-424" type="qcurve" smooth="yes"/>
      <point x="-46" y="-453"/>
      <point x="-114" y="-453" type="qcurve" smooth="yes"/>
      <point x="-184" y="-453"/>
      <point x="-218" y="-418" type="qcurve" smooth="yes"/>
      <point x="-233" y="-402"/>
      <point x="-233" y="-381" type="qcurve" smooth="yes"/>
      <point x="-233" y="-328"/>
      <point x="-182" y="-328" type="qcurve" smooth="yes"/>
      <point x="-158.634" y="-326.235"/>
      <point x="-122" y="-356" type="qcurve" smooth="yes"/>
      <point x="-90" y="-382" type="line" smooth="yes"/>
      <point x="-82.0094" y="-388.492"/>
      <point x="-70" y="-387" type="qcurve" smooth="yes"/>
      <point x="-19" y="-387"/>
      <point x="-18" y="-324" type="qcurve" smooth="yes"/>
      <point x="-18" y="-244"/>
      <point x="-153" y="-182" type="qcurve"/>
      <point x="-30" y="0" type="line"/>
      <point x="43" y="0" type="line"/>
      <point x="-28" y="-98" type="line"/>
      <point x="53" y="-148"/>
      <point x="77" y="-186" type="qcurve" smooth="yes"/>
      <point x="99" y="-221"/>
      <point x="99" y="-272" type="qcurve" smooth="yes"/>
    </contour>
  </outline>
</glyph>
<glyph name="uni0368" format="1">
  <unicode hex="0368"/>
  <outline>
    <contour>
      <point x="171" y="1149" type="qcurve" smooth="yes"/>
      <point x="177" y="1152"/>
      <point x="194" y="1124"/>
      <point x="194" y="1119" type="qcurve" smooth="yes"/>
      <point x="194" y="1116"/>
      <point x="191" y="1113" type="qcurve" smooth="yes"/>
      <point x="177" y="1100"/>
      <point x="78" y="1047"/>
      <point x="0" y="1047" type="qcurve" smooth="yes"/>
      <point x="-86" y="1047"/>
      <point x="-208" y="1176"/>
      <point x="-208" y="1278" type="qcurve" smooth="yes"/>
      <point x="-208" y="1380"/>
      <point x="-68" y="1538"/>
      <point x="43" y="1538" type="qcurve" smooth="yes"/>
      <point x="164" y="1538"/>
      <point x="181" y="1498" type="qcurve" smooth="yes"/>
      <point x="184" y="1491"/>
      <point x="184" y="1476" type="qcurve" smooth="yes"/>
      <point x="184" y="1465"/>
      <point x="154" y="1435"/>
      <point x="145" y="1435" type="qcurve" smooth="yes"/>
      <point x="133" y="1435"/>
      <point x="128" y="1443" type="qcurve" smooth="yes"/>
      <point x="85" y="1502"/>
      <point x="31" y="1502" type="qcurve" smooth="yes"/>
      <point x="-16" y="1502"/>
      <point x="-98" y="1389"/>
      <point x="-98" y="1302" type="qcurve" smooth="yes"/>
      <point x="-98" y="1203"/>
      <point x="-4" y="1110"/>
      <point x="47" y="1110" type="qcurve" smooth="yes"/>
      <point x="93" y="1110"/>
    </contour>
    <contour>
      <point x="0" y="900" type="move" name="_above_center_1"/>
    </contour>
    <contour>
      <point x="0" y="1548" type="move" name="above_center_1"/>
    </contour>
    <contour>
      <point x="0" y="900" type="move" name="_above_center"/>
    </contour>
  </outline>
</glyph>
<glyph name="uni16CE" format="1">
  <unicode hex="16CE"/>
  <advance width="1178"/>
  <outline>
    <contour>
      <point x="536" y="509" type="line"/>
      <point x="106" y="810" type="line"/>
      <point x="166" y="897" type="line"/>
      <point x="536" y="638" type="line"/>
      <point x="536" y="1484" type="line"/>
      <point x="642" y="1484" type="line"/>
      <point x="642" y="638" type="line"/>
      <point x="1012" y="897" type="line"/>
      <point x="1073" y="810" type="line"/>
      <point x="642" y="509" type="line"/>
    </contour>
  </outline>
</glyph>
<glyph name="uni1D1A" format="1">
  <unicode hex="1D1A"/>
  <advance width="946"/>
  <outline>
    <contour>
      <point x="899" y="853" type="line"/>
      <point x="913" y="853"/>
      <point x="913" y="793"/>
      <point x="899" y="793" type="qcurve" smooth="yes"/>
      <point x="799" y="793"/>
      <point x="799" y="720" type="qcurve" smooth="yes"/>
      <point x="799" y="123" type="line" smooth="yes"/>
      <point x="799" y="54"/>
      <point x="905" y="54" type="qcurve" smooth="yes"/>
      <point x="919" y="54"/>
      <point x="919" y="-3"/>
      <point x="905" y="-3" type="qcurve"/>
      <point x="821" y="0"/>
      <point x="724" y="0" type="qcurve" smooth="yes"/>
      <point x="722" y="0" type="line"/>
      <point x="515" y="-3" type="line" smooth="yes"/>
      <point x="386" y="-3"/>
      <point x="298" y="42" type="qcurve" smooth="yes"/>
      <point x="169" y="107"/>
      <point x="169" y="241" type="qcurve" smooth="yes"/>
      <point x="169" y="398"/>
      <point x="345" y="451" type="qcurve" smooth="yes"/>
      <point x="353" y="454"/>
      <point x="353" y="462" type="qcurve" smooth="yes"/>
      <point x="353" y="469"/>
      <point x="348" y="480" type="qcurve" smooth="yes"/>
      <point x="264" y="622"/>
      <point x="144" y="746" type="qcurve" smooth="yes"/>
      <point x="142" y="748"/>
      <point x="140" y="751" type="qcurve" smooth="yes"/>
      <point x="83" y="811"/>
      <point x="32" y="819" type="qcurve" smooth="yes"/>
      <point x="16" y="824"/>
      <point x="16" y="842" type="qcurve" smooth="yes"/>
      <point x="16" y="859"/>
      <point x="32" y="860" type="qcurve" smooth="yes"/>
      <point x="53" y="862"/>
      <point x="73" y="862" type="qcurve" smooth="yes"/>
      <point x="168" y="861"/>
      <point x="219" y="828" type="qcurve" smooth="yes"/>
      <point x="313" y="769"/>
      <point x="396" y="648" type="qcurve" smooth="yes"/>
      <point x="459" y="557"/>
      <point x="466" y="548" type="qcurve" smooth="yes"/>
      <point x="501" y="506"/>
      <point x="505" y="502" type="qcurve" smooth="yes"/>
      <point x="526" y="480"/>
      <point x="554" y="480" type="qcurve" smooth="yes"/>
      <point x="610" y="480"/>
      <point x="629" y="479" type="qcurve" smooth="yes"/>
      <point x="646" y="479"/>
      <point x="646" y="494" type="qcurve" smooth="yes"/>
      <point x="646" y="720" type="line" smooth="yes"/>
      <point x="646" y="743"/>
      <point x="639" y="758" type="qcurve" smooth="yes"/>
      <point x="623" y="793"/>
      <point x="548" y="793" type="qcurve" smooth="yes"/>
      <point x="534" y="793"/>
      <point x="534" y="853"/>
      <point x="548" y="853" type="qcurve"/>
      <point x="605" y="847"/>
      <point x="720" y="847" type="qcurve" smooth="yes"/>
      <point x="845" y="847"/>
      <point x="899" y="853" type="qcurve"/>
    </contour>
    <contour>
      <point x="646" y="400" type="line" smooth="yes"/>
      <point x="646" y="423"/>
      <point x="629" y="424" type="qcurve" smooth="yes"/>
      <point x="574" y="430"/>
      <point x="558" y="430" type="qcurve" smooth="yes"/>
      <point x="523" y="430"/>
      <point x="493" y="426" type="qcurve" smooth="yes"/>
      <point x="309" y="403"/>
      <point x="309" y="241" type="qcurve" smooth="yes"/>
      <point x="309" y="188"/>
      <point x="340" y="144" type="qcurve" smooth="yes"/>
      <point x="408" y="47"/>
      <point x="575" y="47" type="qcurve" smooth="yes"/>
      <point x="583" y="47"/>
      <point x="586" y="47" type="qcurve" smooth="yes"/>
      <point x="629" y="49" type="line" smooth="yes"/>
      <point x="646" y="53"/>
      <point x="646" y="73" type="qcurve" smooth="yes"/>
    </contour>
  </outline>
</glyph>
<glyph name="exclamdbl" format="1">
  <unicode hex="203C"/>
  <advance width="880"/>
  <outline>
    <contour>
      <point x="616" y="211" type="line" smooth="yes"/>
      <point x="677" y="211"/>
      <point x="737" y="137"/>
      <point x="737" y="36"/>
      <point x="668" y="-25"/>
      <point x="562" y="-25"/>
      <point x="495" y="47"/>
      <point x="495" y="149"/>
      <point x="555" y="211"/>
      <point x="616" y="211" type="qcurve" smooth="yes"/>
    </contour>
    <contour>
      <point x="522" y="1275" type="line" smooth="yes"/>
      <point x="522" y="1331"/>
      <point x="583" y="1399"/>
      <point x="620" y="1399" type="qcurve" smooth="yes"/>
      <point x="723" y="1399"/>
      <point x="723" y="1288" type="qcurve" smooth="yes"/>
      <point x="723" y="1225"/>
      <point x="661" y="642"/>
      <point x="649" y="436" type="qcurve" smooth="yes"/>
      <point x="648" y="420"/>
      <point x="616" y="420" type="qcurve" smooth="yes"/>
      <point x="584" y="420"/>
      <point x="583" y="436" type="qcurve" smooth="yes"/>
      <point x="575" y="635"/>
      <point x="522" y="1219"/>
      <point x="522" y="1275" type="qcurve" smooth="yes"/>
    </contour>
    <contour>
      <point x="260" y="211" type="line" smooth="yes"/>
      <point x="321" y="211"/>
      <point x="381" y="137"/>
      <point x="381" y="36"/>
      <point x="312" y="-25"/>
      <point x="206" y="-25"/>
      <point x="139" y="47"/>
      <point x="139" y="149"/>
      <point x="199" y="211"/>
      <point x="260" y="211" type="qcurve" smooth="yes"/>
    </contour>
    <contour>
      <point x="166" y="1275" type="line" smooth="yes"/>
      <point x="166" y="1331"/>
      <point x="227" y="1399"/>
      <point x="264" y="1399" type="qcurve" smooth="yes"/>
      <point x="367" y="1399"/>
      <point x="367" y="1288" type="qcurve" smooth="yes"/>
      <point x="367" y="1225"/>
      <point x="305" y="642"/>
      <point x="293" y="436" type="qcurve" smooth="yes"/>
      <point x="292" y="420"/>
      <point x="260" y="420" type="qcurve" smooth="yes"/>
      <point x="228" y="420"/>
      <point x="227" y="436" type="qcurve" smooth="yes"/>
      <point x="219" y="635"/>
      <point x="166" y="1219"/>
      <point x="166" y="1275" type="qcurve" smooth="yes"/>
    </contour>
  </outline>
</glyph>
<glyph name="twothirds" format="1">
  <unicode hex="2154"/>
  <advance width="1476"/>
  <outline>
    <contour>
      <point x="1434" y="255" type="line"/>
      <point x="1434" y="151"/>
      <point x="1360" y="74" type="qcurve"/>
      <point x="1274" y="-14"/>
      <point x="1143" y="-14" type="qcurve"/>
      <point x="1058" y="-14"/>
      <point x="1004" y="15" type="qcurve"/>
      <point x="957" y="41"/>
      <point x="956" y="85" type="qcurve"/>
      <point x="956" y="143"/>
      <point x="1029" y="143" type="qcurve"/>
      <point x="1056" y="143"/>
      <point x="1084" y="110" type="qcurve"/>
      <point x="1115" y="74" type="line"/>
      <point x="1143" y="46"/>
      <point x="1175" y="46" type="qcurve"/>
      <point x="1236" y="46"/>
      <point x="1268" y="126" type="qcurve"/>
      <point x="1288" y="178"/>
      <point x="1288" y="240" type="qcurve"/>
      <point x="1288" y="320"/>
      <point x="1239" y="366" type="qcurve"/>
      <point x="1200" y="404"/>
      <point x="1141" y="404" type="qcurve"/>
      <point x="1106" y="404"/>
      <point x="1077" y="394" type="qcurve"/>
      <point x="1060" y="394"/>
      <point x="1060" y="427" type="qcurve"/>
      <point x="1060" y="458"/>
      <point x="1073" y="458" type="qcurve"/>
      <point x="1165" y="458"/>
      <point x="1218" y="508" type="qcurve"/>
      <point x="1258" y="547"/>
      <point x="1258" y="604" type="qcurve"/>
      <point x="1258" y="664"/>
      <point x="1226" y="698" type="qcurve"/>
      <point x="1203" y="722"/>
      <point x="1168" y="722" type="qcurve"/>
      <point x="1113" y="722"/>
      <point x="1067" y="672" type="qcurve"/>
      <point x="1050" y="652"/>
      <point x="1034" y="629" type="qcurve"/>
      <point x="1026" y="616"/>
      <point x="1004" y="633" type="qcurve"/>
      <point x="988" y="645"/>
      <point x="994" y="656" type="qcurve"/>
      <point x="1051" y="741"/>
      <point x="1104" y="772" type="qcurve"/>
      <point x="1151" y="799"/>
      <point x="1208" y="799" type="qcurve"/>
      <point x="1288" y="799"/>
      <point x="1342" y="743" type="qcurve"/>
      <point x="1394" y="691"/>
      <point x="1394" y="619" type="qcurve"/>
      <point x="1394" y="516"/>
      <point x="1290" y="455" type="qcurve"/>
      <point x="1434" y="413"/>
      <point x="1434" y="255" type="qcurve"/>
    </contour>
    <contour>
      <point x="1308" y="1389" type="line" smooth="yes"/>
      <point x="417" y="35" type="line" smooth="yes"/>
      <point x="410" y="24"/>
      <point x="353" y="64"/>
      <point x="360" y="74" type="qcurve" smooth="yes"/>
      <point x="1248" y="1425" type="line" smooth="yes"/>
      <point x="1251" y="1430"/>
      <point x="1259" y="1430" type="qcurve" smooth="yes"/>
      <point x="1272" y="1430"/>
      <point x="1314" y="1398"/>
      <point x="1308" y="1389" type="qcurve" smooth="yes"/>
    </contour>
    <contour>
      <point x="510" y="544" type="line" smooth="yes"/>
      <point x="500" y="521"/>
      <point x="462" y="520" type="qcurve" smooth="yes"/>
      <point x="381" y="525"/>
      <point x="314" y="525" type="qcurve" smooth="yes"/>
      <point x="266" y="525" type="line" smooth="yes"/>
      <point x="169" y="525"/>
      <point x="61" y="520" type="qcurve" smooth="yes"/>
      <point x="29" y="520"/>
      <point x="29" y="548" type="qcurve" smooth="yes"/>
      <point x="29" y="561"/>
      <point x="41" y="573" type="qcurve" smooth="yes"/>
      <point x="137" y="669"/>
      <point x="230" y="795" type="qcurve" smooth="yes"/>
      <point x="383" y="1003"/>
      <point x="383" y="1112" type="qcurve" smooth="yes"/>
      <point x="380" y="1235"/>
      <point x="280" y="1235" type="qcurve" smooth="yes"/>
      <point x="191" y="1235"/>
      <point x="135" y="1137" type="qcurve" smooth="yes"/>
      <point x="128" y="1124"/>
      <point x="106" y="1138" type="qcurve" smooth="yes"/>
      <point x="90" y="1148"/>
      <point x="96" y="1158" type="qcurve" smooth="yes"/>
      <point x="145" y="1253"/>
      <point x="222" y="1297" type="qcurve" smooth="yes"/>
      <point x="272" y="1325"/>
      <point x="328" y="1325" type="qcurve" smooth="yes"/>
      <point x="426" y="1325"/>
      <point x="485" y="1259" type="qcurve" smooth="yes"/>
      <point x="537" y="1201"/>
      <point x="537" y="1118" type="qcurve" smooth="yes"/>
      <point x="537" y="1003"/>
      <point x="372" y="819" type="qcurve" smooth="yes"/>
      <point x="337" y="779"/>
      <point x="198" y="641" type="qcurve"/>
      <point x="375" y="641" type="line" smooth="yes"/>
      <point x="444" y="641"/>
      <point x="470" y="652" type="qcurve" smooth="yes"/>
      <point x="500" y="665"/>
      <point x="517" y="700" type="qcurve" smooth="yes"/>
      <point x="524" y="713"/>
      <point x="549" y="702" type="qcurve" smooth="yes"/>
      <point x="572" y="693"/>
      <point x="569" y="685" type="qcurve" smooth="yes"/>
    </contour>
  </outline>
</glyph>
<glyph name="uniA73A" format="1">
  <unicode hex="A73A"/>
  <advance width="1754"/>
  <outline>
    <contour>
      <point x="1240" y="531" type="line"/>
      <point x="1045" y="531" type="line"/>
      <point x="1117" y="301" type="line"/>
      <point x="1124" y="281"/>
      <point x="1133" y="281" type="qcurve"/>
      <point x="1144" y="281"/>
      <point x="1153" y="303" type="qcurve"/>
    </contour>
    <contour>
      <point x="1334" y="531" type="line"/>
      <point x="1127" y="-13" type="line"/>
      <point x="1117" y="-38"/>
      <point x="1090" y="-38" type="qcurve"/>
      <point x="1062" y="-38"/>
      <point x="1048" y="6" type="qcurve"/>
      <point x="892" y="499" type="line"/>
      <point x="883" y="531"/>
      <point x="848" y="531" type="qcurve"/>
      <point x="445" y="531" type="line"/>
      <point x="417" y="531"/>
      <point x="405" y="496" type="qcurve"/>
      <point x="292" y="182" type="line"/>
      <point x="283" y="160"/>
      <point x="283" y="142" type="qcurve"/>
      <point x="283" y="69"/>
      <point x="434" y="69" type="qcurve"/>
      <point x="448" y="69"/>
      <point x="448" y="31" type="qcurve"/>
      <point x="448" y="-7"/>
      <point x="434" y="-7" type="qcurve"/>
      <point x="320" y="0"/>
      <point x="220" y="0" type="qcurve"/>
      <point x="120" y="0"/>
      <point x="9" y="-7" type="qcurve"/>
      <point x="-4" y="-7"/>
      <point x="-4" y="31" type="qcurve"/>
      <point x="-4" y="69"/>
      <point x="9" y="69" type="qcurve"/>
      <point x="115" y="77"/>
      <point x="144" y="102" type="qcurve"/>
      <point x="170" y="125"/>
      <point x="204" y="201" type="qcurve"/>
      <point x="581" y="1188" type="line"/>
      <point x="587" y="1205"/>
      <point x="587" y="1218" type="qcurve"/>
      <point x="587" y="1231"/>
      <point x="579" y="1238" type="qcurve"/>
      <point x="561" y="1258"/>
      <point x="561" y="1264" type="qcurve"/>
      <point x="561" y="1270"/>
      <point x="587" y="1283" type="qcurve"/>
      <point x="640" y="1313"/>
      <point x="720" y="1369" type="qcurve"/>
      <point x="746" y="1387"/>
      <point x="758" y="1387" type="qcurve"/>
      <point x="781" y="1387"/>
      <point x="793" y="1343" type="qcurve"/>
      <point x="811" y="1276"/>
      <point x="842" y="1177" type="qcurve"/>
      <point x="1023" y="600" type="line"/>
      <point x="1266" y="600" type="line"/>
      <point x="1481" y="1163" type="line"/>
      <point x="1491" y="1189"/>
      <point x="1491" y="1209" type="qcurve"/>
      <point x="1491" y="1287"/>
      <point x="1389" y="1287" type="qcurve"/>
      <point x="1375" y="1287"/>
      <point x="1375" y="1325" type="qcurve"/>
      <point x="1375" y="1363"/>
      <point x="1389" y="1363" type="qcurve"/>
      <point x="1435" y="1358"/>
      <point x="1584" y="1358" type="qcurve"/>
      <point x="1732" y="1358"/>
      <point x="1777" y="1363" type="qcurve"/>
      <point x="1791" y="1363"/>
      <point x="1791" y="1325" type="qcurve"/>
      <point x="1791" y="1287"/>
      <point x="1777" y="1287" type="qcurve"/>
      <point x="1623" y="1287"/>
      <point x="1590" y="1201" type="qcurve"/>
      <point x="1361" y="600" type="line"/>
      <point x="1504" y="600" type="line"/>
      <point x="1519" y="600"/>
      <point x="1519" y="566" type="qcurve"/>
      <point x="1519" y="531"/>
      <point x="1504" y="531" type="qcurve"/>
    </contour>
    <contour>
      <point x="852" y="627" type="qcurve"/>
      <point x="684" y="1159" type="line"/>
      <point x="678" y="1179"/>
      <point x="667" y="1179" type="qcurve"/>
      <point x="655" y="1179"/>
      <point x="647" y="1159" type="qcurve"/>
      <point x="450" y="627" type="line"/>
      <point x="448" y="612" type="line"/>
      <point x="451" y="600"/>
      <point x="472" y="600" type="qcurve"/>
      <point x="829" y="600" type="line"/>
      <point x="854" y="600"/>
      <point x="854" y="616" type="qcurve"/>
      <point x="854" y="621"/>
    </contour>
    <contour>
      <point x="687" y="-75" type="move" name="below_center"/>
    </contour>
    <contour>
      <point x="687" y="1425" type="move" name="above_center"/>
    </contour>
  </outline>
</glyph>
<glyph name="uniA759" format="1">
  <unicode hex="A759"/>
  <advance width="931"/>
  <outline>
    <contour>
      <point x="1032" y="-129" type="qcurve" smooth="yes"/>
      <point x="848" y="-197" type="line"/>
      <point x="811" y="-209"/>
      <point x="811" y="-244" type="qcurve" smooth="yes"/>
      <point x="811" y="-418" type="line" smooth="yes"/>
      <point x="811" y="-502"/>
      <point x="944" y="-502" type="qcurve" smooth="yes"/>
      <point x="958" y="-502"/>
      <point x="958" y="-559"/>
      <point x="944" y="-559" type="qcurve"/>
      <point x="862" y="-551"/>
      <point x="606" y="-551"/>
      <point x="524" y="-559" type="qcurve"/>
      <point x="508" y="-559"/>
      <point x="508" y="-502"/>
      <point x="524" y="-502" type="qcurve" smooth="yes"/>
      <point x="657" y="-502"/>
      <point x="657" y="-416" type="qcurve" smooth="yes"/>
      <point x="657" y="-301" type="line" smooth="yes"/>
      <point x="657" y="-281"/>
      <point x="643" y="-270"/>
      <point x="621" y="-279" type="qcurve"/>
      <point x="467" y="-334" type="line"/>
      <point x="459" y="-336"/>
      <point x="436" y="-303"/>
      <point x="431" y="-268"/>
      <point x="440" y="-264" type="qcurve"/>
      <point x="621" y="-199" type="line" smooth="yes"/>
      <point x="645" y="-190"/>
      <point x="657" y="-170"/>
      <point x="657" y="-145" type="qcurve" smooth="yes"/>
      <point x="657" y="-37" type="line" smooth="yes"/>
      <point x="657" y="-16"/>
      <point x="639" y="6"/>
      <point x="625" y="-2" type="qcurve"/>
      <point x="565" y="-23"/>
      <point x="483" y="-23" type="qcurve" smooth="yes"/>
      <point x="285" y="-23"/>
      <point x="84" y="213"/>
      <point x="84" y="498" type="qcurve" smooth="yes"/>
      <point x="84" y="653"/>
      <point x="281" y="870"/>
      <point x="436" y="870" type="qcurve" smooth="yes"/>
      <point x="565" y="870"/>
      <point x="680" y="811" type="qcurve"/>
      <point x="799" y="866" type="line"/>
      <point x="813" y="874"/>
      <point x="850" y="831"/>
      <point x="838" y="821" type="qcurve" smooth="yes"/>
      <point x="811" y="797"/>
      <point x="811" y="522" type="qcurve" smooth="yes"/>
      <point x="811" y="-90" type="line" smooth="yes"/>
      <point x="811" y="-113"/>
      <point x="825" y="-123"/>
      <point x="848" y="-115" type="qcurve" smooth="yes"/>
      <point x="1006" y="-57" type="line"/>
      <point x="1014" y="-55"/>
      <point x="1036" y="-88"/>
      <point x="1043" y="-125"/>
    </contour>
    <contour>
      <point x="657" y="205" type="qcurve" smooth="yes"/>
      <point x="657" y="623" type="line" smooth="yes"/>
      <point x="657" y="659"/>
      <point x="643" y="682" type="qcurve"/>
      <point x="557" y="788"/>
      <point x="477" y="788" type="qcurve" smooth="yes"/>
      <point x="258" y="788"/>
      <point x="258" y="420" type="qcurve" smooth="yes"/>
      <point x="258" y="281"/>
      <point x="365" y="41"/>
      <point x="453" y="41" type="qcurve" smooth="yes"/>
      <point x="657" y="41"/>
    </contour>
    <contour>
      <point x="553" y="-626" type="move" name="below_center"/>
    </contour>
    <contour>
      <point x="465" y="900" type="move" name="above_center"/>
    </contour>
  </outline>
</glyph>
<glyph name="uniE662" format="1">
  <unicode hex="E662"/>
  <advance width="1522"/>
  <outline>
    <contour>
      <point x="1117" y="-379" type="line"/>
      <point x="1075" y="-435"/>
      <point x="978" y="-488"/>
      <point x="911" y="-488" type="qcurve" smooth="yes"/>
      <point x="823" y="-488"/>
      <point x="729" y="-383"/>
      <point x="729" y="-311" type="qcurve" smooth="yes"/>
      <point x="729" y="-146.227"/>
      <point x="944.144" y="35.0947" type="qcurve"/>
      <point x="885.247" y="79.5433"/>
      <point x="838" y="158" type="qcurve"/>
      <point x="726" y="-23"/>
      <point x="498" y="-23" type="qcurve" smooth="yes"/>
      <point x="323" y="-23"/>
      <point x="76" y="260"/>
      <point x="76" y="424" type="qcurve" smooth="yes"/>
      <point x="76" y="596"/>
      <point x="326" y="870"/>
      <point x="496" y="870" type="qcurve" smooth="yes"/>
      <point x="706" y="870"/>
      <point x="831" y="684" type="qcurve"/>
      <point x="948" y="870"/>
      <point x="1126" y="870" type="qcurve" smooth="yes"/>
      <point x="1259" y="870"/>
      <point x="1444" y="683"/>
      <point x="1444" y="604" type="qcurve" smooth="yes"/>
      <point x="1444" y="549"/>
      <point x="1393" y="549" type="qcurve" smooth="yes"/>
      <point x="944" y="549" type="line" smooth="yes"/>
      <point x="913" y="549"/>
      <point x="913" y="483" type="qcurve" smooth="yes"/>
      <point x="913" y="312"/>
      <point x="1074" y="94"/>
      <point x="1202" y="94" type="qcurve" smooth="yes"/>
      <point x="1293" y="94"/>
      <point x="1403" y="154" type="qcurve" smooth="yes"/>
      <point x="1423" y="165"/>
      <point x="1436" y="147" type="qcurve" smooth="yes"/>
      <point x="1444" y="136"/>
      <point x="1444" y="122"/>
      <point x="1438" y="117" type="qcurve" smooth="yes"/>
      <point x="1280" y="-23"/>
      <point x="1118" y="-23" type="qcurve" smooth="yes"/>
      <point x="1055.48" y="-23"/>
      <point x="1001.26" y="1.19163" type="qcurve"/>
      <point x="870" y="-140.602"/>
      <point x="870" y="-249" type="qcurve" smooth="yes"/>
      <point x="870" y="-377"/>
      <point x="993" y="-377" type="qcurve" smooth="yes"/>
      <point x="1053" y="-377"/>
      <point x="1096" y="-343" type="qcurve"/>
      <point x="1117" y="-350"/>
      <point x="1117" y="-379" type="qcurve"/>
    </contour>
    <contour>
      <point x="752" y="420" type="line" smooth="yes"/>
      <point x="752" y="589"/>
      <point x="601" y="811"/>
      <point x="498" y="811" type="qcurve" smooth="yes"/>
      <point x="401" y="811"/>
      <point x="238" y="593"/>
      <point x="238" y="433" type="qcurve" smooth="yes"/>
      <point x="238" y="245"/>
      <point x="402" y="43"/>
      <point x="496" y="43" type="qcurve" smooth="yes"/>
      <point x="613" y="43"/>
      <point x="752" y="272"/>
      <point x="752" y="420" type="qcurve" smooth="yes"/>
    </contour>
    <contour>
      <point x="1296" y="633" type="line" smooth="yes"/>
      <point x="1296" y="684"/>
      <point x="1185" y="811"/>
      <point x="1128" y="811" type="qcurve" smooth="yes"/>
      <point x="1078" y="811"/>
      <point x="1004" y="762"/>
      <point x="938" y="664"/>
      <point x="938" y="633" type="qcurve" smooth="yes"/>
      <point x="938" y="616"/>
      <point x="961" y="616" type="qcurve" smooth="yes"/>
      <point x="1282" y="616" type="line" smooth="yes"/>
      <point x="1296" y="616"/>
      <point x="1296" y="633" type="qcurve" smooth="yes"/>
    </contour>
  </outline>
</glyph>
<glyph name="uniF02F" format="1">
  <unicode hex="F02F"/>
  <outline>
    <contour>
      <point x="107" y="1020" type="qcurve"/>
      <point x="65" y="1024"/>
      <point x="-57" y="1024"/>
      <point x="-101" y="1020" type="qcurve"/>
      <point x="-109" y="1020"/>
      <point x="-109" y="1051"/>
      <point x="-101" y="1051" type="qcurve" smooth="yes"/>
      <point x="-39" y="1051"/>
      <point x="-39" y="1094" type="qcurve" smooth="yes"/>
      <point x="-39" y="1317" type="line" smooth="yes"/>
      <point x="-39" y="1380"/>
      <point x="-52" y="1397" type="qcurve" smooth="yes"/>
      <point x="-62" y="1410"/>
      <point x="-85" y="1410" type="qcurve" smooth="yes"/>
      <point x="-94" y="1410"/>
      <point x="-95" y="1441"/>
      <point x="-85" y="1441" type="qcurve" smooth="yes"/>
      <point x="-53" y="1441"/>
      <point x="26" y="1504" type="qcurve" smooth="yes"/>
      <point x="34" y="1510"/>
      <point x="39" y="1510" type="qcurve" smooth="yes"/>
      <point x="49" y="1510"/>
      <point x="49" y="1498" type="qcurve"/>
      <point x="45" y="1462"/>
      <point x="45" y="1426" type="qcurve" smooth="yes"/>
      <point x="45" y="1094" type="line" smooth="yes"/>
      <point x="45" y="1051"/>
      <point x="107" y="1051" type="qcurve" smooth="yes"/>
      <point x="115" y="1051"/>
      <point x="115" y="1020"/>
    </contour>
    <contour>
      <point x="0" y="900" type="move" name="_above_center_1"/>
    </contour>
    <contour>
      <point x="0" y="1520" type="move" name="above_center_1"/>
    </contour>
    <contour>
      <point x="0" y="900" type="move" name="_above_center"/>
    </contour>
  </outline>
</glyph>
<glyph name="uniF1CC" format="1">
  <unicode hex="F1CC"/>
  <outline>
    <contour>
      <point x="-365" y="1020" type="qcurve" smooth="yes"/>
      <point x="-272" y="1163"/>
      <point x="-164" y="1163" type="qcurve" smooth="yes"/>
      <point x="-120" y="1163"/>
      <point x="46" y="1104"/>
      <point x="79" y="1104" type="qcurve" smooth="yes"/>
      <point x="173" y="1104"/>
      <point x="173" y="1212" type="qcurve" smooth="yes"/>
      <point x="173" y="1326"/>
      <point x="24" y="1327" type="qcurve"/>
      <point x="-30" y="1327"/>
      <point x="-70" y="1297" type="qcurve"/>
      <point x="-89" y="1303"/>
      <point x="-89" y="1329" type="qcurve"/>
      <point x="-49" y="1382"/>
      <point x="42" y="1428"/>
      <point x="98" y="1428" type="qcurve" smooth="yes"/>
      <point x="176" y="1428"/>
      <point x="268" y="1338"/>
      <point x="268" y="1268" type="qcurve" smooth="yes"/>
      <point x="268" y="1151"/>
      <point x="98" y="1000"/>
      <point x="28" y="1000" type="qcurve" smooth="yes"/>
      <point x="-20" y="1000"/>
      <point x="-185" y="1063"/>
      <point x="-226" y="1063" type="qcurve" smooth="yes"/>
      <point x="-280" y="1063"/>
      <point x="-341" y="1002" type="qcurve" smooth="yes"/>
      <point x="-347" y="996"/>
      <point x="-369" y="1014"/>
    </contour>
    <contour>
      <point x="0" y="900" type="move" name="_above_center_1"/>
    </contour>
    <contour>
      <point x="0" y="1438" type="move" name="above_center_1"/>
    </contour>
    <contour>
      <point x="0" y="900" type="move" name="_above_center"/>
    </contour>
  </outline>
</glyph>
<glyph name="uniF200" format="1">
  <unicode hex="F200"/>
  <advance width="1012"/>
  <outline>
    <contour>
      <point x="1012" y="38" type="qcurve" smooth="yes"/>
      <point x="971" y="11"/>
      <point x="932" y="-4" type="qcurve"/>
      <point x="887" y="-19"/>
      <point x="840" y="-19" type="qcurve"/>
      <point x="768" y="-18"/>
      <point x="738" y="28" type="qcurve" smooth="yes"/>
      <point x="706" y="77"/>
      <point x="693" y="118" type="qcurve"/>
      <point x="663" y="79"/>
      <point x="649" y="66" type="qcurve" smooth="yes"/>
      <point x="554" y="-23"/>
      <point x="453" y="-23" type="qcurve" smooth="yes"/>
      <point x="256" y="-23"/>
      <point x="156" y="106" type="qcurve" smooth="yes"/>
      <point x="66" y="222"/>
      <point x="66" y="412" type="qcurve" smooth="yes"/>
      <point x="66" y="600"/>
      <point x="195" y="733" type="qcurve"/>
      <point x="330" y="870"/>
      <point x="541" y="870" type="qcurve" smooth="yes"/>
      <point x="608" y="870"/>
      <point x="653" y="852" type="qcurve" smooth="yes"/>
      <point x="700" y="832"/>
      <point x="716" y="817" type="qcurve"/>
      <point x="743" y="847"/>
      <point x="818" y="879" type="qcurve" smooth="yes"/>
      <point x="827" y="883"/>
      <point x="836" y="883" type="qcurve" smooth="yes"/>
      <point x="848" y="883"/>
      <point x="848" y="868" type="qcurve" smooth="yes"/>
      <point x="848" y="858"/>
      <point x="842" y="760"/>
      <point x="842" y="733" type="qcurve" smooth="yes"/>
      <point x="842" y="231" type="line" smooth="yes"/>
      <point x="842" y="54"/>
      <point x="912" y="54" type="qcurve" smooth="yes"/>
      <point x="932" y="54"/>
      <point x="978" y="87" type="qcurve" smooth="yes"/>
      <point x="990" y="95"/>
      <point x="1006" y="70" type="qcurve" smooth="yes"/>
      <point x="1016" y="54"/>
      <point x="1016" y="46" type="qcurve" smooth="yes"/>
      <point x="1016" y="40"/>
    </contour>
    <contour>
      <point x="688" y="199" type="qcurve" smooth="yes"/>
      <point x="688" y="668" type="line" smooth="yes"/>
      <point x="688" y="721"/>
      <point x="691" y="760" type="qcurve"/>
      <point x="626" y="810"/>
      <point x="518" y="811" type="qcurve"/>
      <point x="384" y="811"/>
      <point x="301" y="694" type="qcurve"/>
      <point x="229" y="588"/>
      <point x="229" y="440" type="qcurve" smooth="yes"/>
      <point x="229" y="291"/>
      <point x="311" y="182" type="qcurve"/>
      <point x="395" y="74"/>
      <point x="504" y="74" type="qcurve" smooth="yes"/>
      <point x="582" y="74"/>
      <point x="637" y="117" type="qcurve" smooth="yes"/>
      <point x="688" y="156"/>
    </contour>
    <contour>
      <point x="480" y="-75" type="move" name="below_center"/>
    </contour>
    <contour>
      <point x="480" y="900" type="move" name="above_center"/>
    </contour>
  </outline>
</glyph>
<glyph name="uniF217" format="1">
  <unicode hex="F217"/>
  <advance width="1261"/>
  <outline>
    <contour>
      <point x="90" y="667" type="line" smooth="yes"/>
      <point x="90" y="950"/>
      <point x="452" y="1385"/>
      <point x="731" y="1385" type="qcurve" smooth="yes"/>
      <point x="877" y="1385"/>
      <point x="1097" y="1290"/>
      <point x="1135" y="1255" type="qcurve"/>
      <point x="1148" y="1306"/>
      <point x="1162" y="1358" type="qcurve" smooth="yes"/>
      <point x="1165" y="1368"/>
      <point x="1201" y="1368" type="qcurve" smooth="yes"/>
      <point x="1238" y="1368"/>
      <point x="1240" y="1358" type="qcurve"/>
      <point x="1126" y="926"/>
      <point x="1126" y="664" type="qcurve" smooth="yes"/>
      <point x="1126" y="402"/>
      <point x="1240" y="-33" type="qcurve"/>
      <point x="1236" y="-46"/>
      <point x="1166" y="-46"/>
      <point x="1162" y="-33" type="qcurve" smooth="yes"/>
      <point x="1138" y="46"/>
      <point x="1119" y="123" type="qcurve"/>
      <point x="1022" y="47"/>
      <point x="839" y="-27"/>
      <point x="728" y="-27" type="qcurve" smooth="yes"/>
      <point x="442" y="-27"/>
      <point x="90" y="365"/>
      <point x="90" y="667" type="qcurve" smooth="yes"/>
    </contour>
    <contour>
      <point x="1048" y="691" type="line"/>
      <point x="325" y="691" type="line" smooth="yes"/>
      <point x="287" y="691"/>
      <point x="286" y="649" type="qcurve" smooth="yes"/>
      <point x="286" y="415"/>
      <point x="550" y="90"/>
      <point x="712" y="90" type="qcurve" smooth="yes"/>
      <point x="873" y="90"/>
      <point x="1045" y="158"/>
      <point x="1102" y="195" type="qcurve"/>
      <point x="1048" y="439"/>
      <point x="1048" y="655" type="qcurve" smooth="yes"/>
      <point x="1048" y="673"/>
      <point x="1048" y="691" type="qcurve"/>
    </contour>
    <contour>
      <point x="1051" y="767" type="line"/>
      <point x="1062" y="927"/>
      <point x="1101" y="1114" type="qcurve"/>
      <point x="1047" y="1193"/>
      <point x="845" y="1314"/>
      <point x="726" y="1314" type="qcurve" smooth="yes"/>
      <point x="538" y="1314"/>
      <point x="286" y="985"/>
      <point x="286" y="810" type="qcurve" smooth="yes"/>
      <point x="286" y="767"/>
      <point x="325" y="767" type="qcurve" smooth="yes"/>
    </contour>
  </outline>
</glyph>
<glyph name="f_r" format="1">
  <advance width="1280"/>
  <outline>
    <contour>
      <point x="201" y="127" type="qcurve" smooth="yes"/>
      <point x="201" y="727" type="line" smooth="yes"/>
      <point x="201" y="764"/>
      <point x="164" y="764" type="qcurve" smooth="yes"/>
      <point x="90" y="764" type="line" smooth="yes"/>
      <point x="75" y="764"/>
      <point x="75" y="819"/>
      <point x="90" y="819" type="qcurve" smooth="yes"/>
      <point x="201" y="819"/>
      <point x="201" y="905" type="qcurve" smooth="yes"/>
      <point x="201" y="924" type="line" smooth="yes"/>
      <point x="201" y="1174"/>
      <point x="483" y="1487"/>
      <point x="672" y="1487" type="qcurve" smooth="yes"/>
      <point x="725" y="1487"/>
      <point x="768" y="1474" type="qcurve" smooth="yes"/>
      <point x="810" y="1461"/>
      <point x="834" y="1435" type="qcurve" smooth="yes"/>
      <point x="858" y="1410"/>
      <point x="858" y="1368" type="qcurve" smooth="yes"/>
      <point x="858" y="1338"/>
      <point x="803" y="1284"/>
      <point x="772" y="1284" type="qcurve" smooth="yes"/>
      <point x="716" y="1284"/>
      <point x="625" y="1393"/>
      <point x="571" y="1393" type="qcurve" smooth="yes"/>
      <point x="465" y="1393"/>
      <point x="354" y="1223"/>
      <point x="354" y="1101" type="qcurve" smooth="yes"/>
      <point x="354" y="887" type="line" smooth="yes"/>
      <point x="354" y="850"/>
      <point x="391" y="850" type="qcurve" smooth="yes"/>
      <point x="752" y="850" type="line" smooth="yes"/>
      <point x="811" y="850"/>
      <point x="892" y="883"/>
      <point x="899" y="883" type="qcurve" smooth="yes"/>
      <point x="917" y="883"/>
      <point x="916" y="858" type="qcurve" smooth="yes"/>
      <point x="912" y="784"/>
      <point x="912" y="728"/>
      <point x="939" y="728"/>
      <point x="953" y="748" type="qcurve" smooth="yes"/>
      <point x="1042" y="870"/>
      <point x="1166" y="870" type="qcurve" smooth="yes"/>
      <point x="1198" y="870"/>
      <point x="1240" y="848"/>
      <point x="1276" y="802"/>
      <point x="1276" y="758" type="qcurve" smooth="yes"/>
      <point x="1276" y="746"/>
      <point x="1256" y="701"/>
      <point x="1214" y="670"/>
      <point x="1171" y="670"/>
      <point x="1080" y="719"/>
      <point x="1057" y="719" type="qcurve" smooth="yes"/>
      <point x="996" y="719"/>
      <point x="912" y="598"/>
      <point x="912" y="494" type="qcurve" smooth="yes"/>
      <point x="912" y="127" type="line" smooth="yes"/>
      <point x="912" y="49"/>
      <point x="1063" y="49" type="qcurve" smooth="yes"/>
      <point x="1077" y="49"/>
      <point x="1077" y="-8"/>
      <point x="1063" y="-8" type="qcurve"/>
      <point x="979" y="0"/>
      <point x="727" y="0"/>
      <point x="644" y="-8" type="qcurve"/>
      <point x="630" y="-8"/>
      <point x="630" y="49"/>
      <point x="644" y="49" type="qcurve" smooth="yes"/>
      <point x="759" y="49"/>
      <point x="759" y="127" type="qcurve" smooth="yes"/>
      <point x="759" y="764" type="line"/>
      <point x="391" y="764" type="line" smooth="yes"/>
      <point x="354" y="764"/>
      <point x="354" y="727" type="qcurve" smooth="yes"/>
      <point x="354" y="127" type="line" smooth="yes"/>
      <point x="354" y="49"/>
      <point x="502" y="49" type="qcurve" smooth="yes"/>
      <point x="516" y="49"/>
      <point x="516" y="-8"/>
      <point x="502" y="-8" type="qcurve"/>
      <point x="417" y="0"/>
      <point x="165" y="0"/>
      <point x="84" y="-8" type="qcurve"/>
      <point x="70" y="-8"/>
      <point x="70" y="49"/>
      <point x="84" y="49" type="qcurve" smooth="yes"/>
      <point x="201" y="49"/>
    </contour>
  </outline>
</glyph>
<glyph name="parenleft.sc" format="1">
  <advance width="457"/>
  <outline>
    <contour>
      <point x="449" y="-32" type="line" smooth="yes"/>
      <point x="449" y="-49"/>
      <point x="408" y="-49" type="qcurve" smooth="yes"/>
      <point x="386" y="-49"/>
      <point x="369" y="-40" type="qcurve" smooth="yes"/>
      <point x="233" y="29"/>
      <point x="158" y="171" type="qcurve" smooth="yes"/>
      <point x="84" y="308"/>
      <point x="84" y="470" type="qcurve" smooth="yes"/>
      <point x="84" y="625"/>
      <point x="154" y="758" type="qcurve" smooth="yes"/>
      <point x="229" y="908"/>
      <point x="369" y="980" type="qcurve" smooth="yes"/>
      <point x="383" y="988"/>
      <point x="408" y="988" type="qcurve" smooth="yes"/>
      <point x="449" y="988"/>
      <point x="449" y="971" type="qcurve" smooth="yes"/>
      <point x="449" y="960"/>
      <point x="430" y="953" type="qcurve" smooth="yes"/>
      <point x="332" y="897"/>
      <point x="278" y="767" type="qcurve" smooth="yes"/>
      <point x="223" y="636"/>
      <point x="223" y="470" type="qcurve" smooth="yes"/>
      <point x="223" y="307"/>
      <point x="276" y="177" type="qcurve" smooth="yes"/>
      <point x="332" y="47"/>
      <point x="432" y="-12" type="qcurve" smooth="yes"/>
      <point x="449" y="-23"/>
      <point x="449" y="-32" type="qcurve" smooth="yes"/>
    </contour>
  </outline>
</glyph>
